<?xml version="1.0" standalone="no"?><!DOCTYPE svg PUBLIC "-//W3C//DTD SVG 1.1//EN" "http://www.w3.org/Graphics/SVG/1.1/DTD/svg11.dtd"><svg t="1680827435146" class="icon" viewBox="0 0 1025 1024" version="1.1" xmlns="http://www.w3.org/2000/svg" p-id="4000" xmlns:xlink="http://www.w3.org/1999/xlink" width="200.1953125" height="200"><path d="M344.626 600.536c8.607-3.256 19.065-6.233 31.491-14.042 18.109-11.379 32.062-34.843-1.603-63.595-111.384-160.502-70.843-267.145-53.924-307.317-14.133-5.496-30.208-8.747-48.608-8.747h-5.787c-106.593 0-134.923 96.947-137.085 151.323-1.43 128.215 76.955 179.192 76.955 179.192s4.883 6.742 4.883 26.297c0 4.458-2.906 17.813-7.921 21.847-43.752 35.43-189.787 72.341-199.992 148.665-5.395 22.053-2.168 44.959-1.106 66.186 23.896 18.349 100.454 33.905 100.454 33.905s6.356-19.31 12.808-51.222c9.536-47.171 73.357-123.507 229.435-182.492z m676.565 132.952c-10.484-76.229-160.407-113.09-205.271-148.474-5.151-4.033-8.11-17.367-8.11-21.813 0-19.539 4.972-26.27 4.972-26.27s80.384-50.909 78.882-178.961c-2.191-54.311-36.079-151.135-140.477-151.135h-5.937c-22.504 0-41.425 4.278-57.578 11.272 22.338 74.782 49.177 212.002-63.755 303.96-44.306 66.052 103.281 104.794 80.341 94.485C837.807 676.57 873.75 722.614 883.537 770.22c8.172 39.733 12.808 64.031 12.808 64.031s100.058-15.272 125.936-34.66c1.116-21.204 4.422-44.078-1.09-66.103zM585.685 587.176c-6.312-5.016-9.943-21.612-9.943-27.136 0-24.28 6.077-32.626 6.077-32.626-0.111 0.072 98.734-53.379 96.79-222.424-2.692-67.509-44.256-187.833-172.348-187.833h-7.285c-134.018 0-169.661 120.323-172.366 187.833-1.809 159.138 96.768 222.424 96.768 222.424s11.954 13.634 11.954 37.916c0 5.53-9.485 16.824-15.787 21.847-55.013 43.982-253.102 88.31-265.943 183.044-9.943 40.19-68.755 103.929 126.791 129.589 53.869 7.067 127.043 11.245 225.859 11.245 453.509 0 359.745-87.859 346.999-139.37-12.849-94.73-212.535-140.529-267.566-184.509z" p-id="4001" fill="#e6e6e6"></path></svg>