<?xml version="1.0" standalone="no"?><!DOCTYPE svg PUBLIC "-//W3C//DTD SVG 1.1//EN" "http://www.w3.org/Graphics/SVG/1.1/DTD/svg11.dtd"><svg t="1680827679682" class="icon" viewBox="0 0 1024 1024" version="1.1" xmlns="http://www.w3.org/2000/svg" p-id="7753" xmlns:xlink="http://www.w3.org/1999/xlink" width="200" height="200"><path d="M880.70481 220.35443L675.90481 15.035949A51.07038 51.07038 0 0 0 639.740759 0H179.848101a51.848101 51.848101 0 0 0-51.848101 51.848101v920.303798a51.848101 51.848101 0 0 0 51.848101 51.848101h664.563038a51.848101 51.848101 0 0 0 51.2-51.848101V255.87038A50.940759 50.940759 0 0 0 880.70481 220.35443zM665.40557 77.772152L818.875949 230.33519H665.40557zM179.848101 972.151899V51.848101h434.357469v204.022279a25.924051 25.924051 0 0 0 25.92405 25.92405h204.281519V972.151899z" fill="#bfbfbf" p-id="7754"></path><path d="M281.47038 332.60557h460.540759v51.2H281.47038z" fill="#bfbfbf" p-id="7755"></path><path d="M281.47038 435.00557h460.540759v51.2H281.47038z" fill="#bfbfbf" p-id="7756"></path><path d="M281.47038 537.40557h153.470379v51.2H281.47038z" fill="#bfbfbf" p-id="7757"></path><path d="M728.919494 746.483038a127.80557 127.80557 0 1 0-242.649114-55.607089 125.990886 125.990886 0 0 0 12.962025 55.607089l-64.032405 110.695696a25.924051 25.924051 0 0 0 1.944304 28.386836 25.146329 25.146329 0 0 0 26.831392 9.073417l45.237469-12.054683 12.054683 45.237468A25.924051 25.924051 0 0 0 542.78481 946.227848h3.370127a25.924051 25.924051 0 0 0 22.165063-12.962025l45.88557-77.772152L659.443038 933.913924a25.924051 25.924051 0 0 0 22.165063 12.962025L685.367089 946.227848a25.924051 25.924051 0 0 0 21.387341-18.665316l12.054684-45.237469 45.237468 12.054684a25.924051 25.924051 0 0 0 26.961013-9.073418 25.924051 25.924051 0 0 0 1.814683-28.386835z m-114.713924-132.342279a76.73519 76.73519 0 1 1-76.864811 76.73519 76.86481 76.86481 0 0 1 76.864811-76.73519zM555.746835 855.493671l-2.851645-10.24a25.146329 25.146329 0 0 0-11.925063-15.55443 25.924051 25.924051 0 0 0-12.962026-3.370127 22.683544 22.683544 0 0 0-6.610633 0.907342l-10.24 2.722025 22.942785-39.793418a126.768608 126.768608 0 0 0 45.367089 23.720507z m151.655697-28.905317a25.924051 25.924051 0 0 0-19.443038 2.462785 25.924051 25.924051 0 0 0-11.925064 15.554431l-2.722025 10.24-23.979747-41.608102a126.768608 126.768608 0 0 0 45.367089-23.720506L717.642532 829.56962z" fill="#bfbfbf" p-id="7758"></path></svg>