<?xml version="1.0" standalone="no"?><!DOCTYPE svg PUBLIC "-//W3C//DTD SVG 1.1//EN" "http://www.w3.org/Graphics/SVG/1.1/DTD/svg11.dtd"><svg t="1680828511589" class="icon" viewBox="0 0 1024 1024" version="1.1" xmlns="http://www.w3.org/2000/svg" p-id="19386" xmlns:xlink="http://www.w3.org/1999/xlink" width="200" height="200"><path d="M176 841.2c0 46.8 151.2 84.4 337.6 84.4 186.4 0 337.6-37.6 337.6-84.4 0-46.8-151.2-84.4-337.6-84.4-186.4 0-337.6 38-337.6 84.4z m0 0" fill="#CCCCCC" p-id="19387"></path><path d="M798.8 339.2c0 124-214 414-270 489.6-7.6 8.8-20.8 8.8-28 0-58-75.6-272-365.2-272-489.6C228.4 196.8 356 80 513.6 80c157.6 0 285.2 116.8 285.2 259.2z m0 0" fill="#B3B3B3" p-id="19388"></path><path d="M512 340m-120 0a120 120 0 1 0 240 0 120 120 0 1 0-240 0Z" fill="#FFFFFF" p-id="19389"></path></svg>