<?xml version="1.0" standalone="no"?><!DOCTYPE svg PUBLIC "-//W3C//DTD SVG 1.1//EN" "http://www.w3.org/Graphics/SVG/1.1/DTD/svg11.dtd"><svg t="1680827546865" class="icon" viewBox="0 0 1024 1024" version="1.1" xmlns="http://www.w3.org/2000/svg" p-id="6789" xmlns:xlink="http://www.w3.org/1999/xlink" width="200" height="200"><path d="M454.314667 408.064c6.144 33.28 28.330667 63.829333 58.368 64.512 30.037333-0.682667 52.053333-31.232 58.368-64.512 25.941333-17.749333 16.554667-37.205333 0.682667-39.936-5.12-24.746667-4.437333-43.349333-22.357333-52.565333-38.4 27.648-77.824 15.530667-86.016 12.458667-5.290667 10.069333-6.144 23.722667-9.557333 40.106667C437.76 370.858667 428.202667 390.144 454.314667 408.064z" p-id="6790" fill="#cdcdcd"></path><path d="M451.072 366.762667c3.584-17.066667 4.437333-31.402667 10.069333-41.813333 8.533333 3.072 48.64 15.872 88.746667-12.970667 18.773333 9.557333 20.650667 29.013333 24.405333 54.954667 2.56 0.512 5.12 1.365333 7.168 2.56 1.706667-14.165333 7.168-77.824-24.576-78.506667-6.826667-9.045333-24.234667-15.36-44.202667-15.36-80.896 0-71.68 78.165333-68.949333 93.866667C445.952 368.298667 448.341333 367.274667 451.072 366.762667z" p-id="6791" fill="#cdcdcd"></path><path d="M431.274667 530.944l23.893333-17.578667-19.797333-8.192 14.677333-25.258667c-22.186667 10.24-52.224 25.088-58.538667 33.28-10.24 13.482667-26.453333 93.525333-26.453333 93.525333l140.970667 0L431.274667 530.944z" p-id="6792" fill="#cdcdcd"></path><path d="M456.874667 476.842667l-15.189333 26.282667 22.186667 9.216-25.941333 19.114667 74.069333 75.434667-37.205333-137.898667C474.794667 468.821333 467.285333 472.064 456.874667 476.842667z" p-id="6793" fill="#cdcdcd"></path><path d="M588.629333 505.173333l-19.797333 8.192 23.893333 17.578667-74.581333 75.776 140.970667 0c0 0-16.213333-79.872-26.453333-93.525333-6.314667-8.362667-36.352-23.210667-58.538667-33.28L588.629333 505.173333z" p-id="6794" fill="#cdcdcd"></path><path d="M560.128 512.170667l22.357333-9.216-15.189333-26.282667c-10.581333-4.778667-18.090667-7.850667-18.090667-7.850667L512 606.72l74.069333-75.434667L560.128 512.170667z" p-id="6795" fill="#cdcdcd"></path><path d="M519.509333 483.498667 504.490667 483.498667 496.981333 497.834667 502.272 503.296 497.493333 536.234667 512 589.994667 526.506667 536.234667 521.728 503.296 527.018667 497.834667Z" p-id="6796" fill="#cdcdcd"></path><path d="M224.085333 370.176c-6.485333 3.584-14.336 5.461333-23.552 5.461333-10.410667 0-20.309333-2.389333-26.282667-4.096 0.512 25.770667-14.848 48.469333-14.848 48.469333s-5.802667-3.754667-13.994667-3.754667c-4.949333 0-12.117333 1.194667-17.066667 7.68-12.629333 16.554667-2.901333 58.197333-2.901333 58.197333l-9.728-1.877333c13.141333 27.306667 39.424 45.909333 66.901333 45.909333 47.786667 0 58.88-23.552 61.952-55.808 7.850667 0 15.530667-3.413333 17.237333-8.533333 3.072-9.216-14.336-36.181333-15.36-41.130667C241.834667 399.36 237.568 381.44 224.085333 370.176z" p-id="6797" fill="#cdcdcd"></path><path d="M119.466667 475.989333c-13.824-67.413333 24.234667-68.608 38.4-62.122667 10.069333-14.677333 12.288-48.810667 12.288-48.810667s55.296 21.674667 67.242667-19.456c10.922667-37.546667-59.904-55.125333-102.741333-21.162667-33.109333-15.530667-57.002667 16.213333-58.197333 51.029333-1.536 44.714667 25.429333 69.290667 29.184 97.621333L119.466667 475.989333z" p-id="6798" fill="#cdcdcd"></path><path d="M259.413333 564.053333l-10.069333 12.288 9.898667 14.165333-31.744 91.989333 75.776-51.541333c-5.290667-17.749333-13.482667-42.154667-23.04-64.512-4.608-10.752-23.722667-24.405333-31.402667-26.282667L259.413333 564.053333z" p-id="6799" fill="#cdcdcd"></path><path d="M244.736 576.170667 254.805333 564.053333 242.176 536.064 229.888 529.408 221.354667 686.592 254.634667 590.506667Z" p-id="6800" fill="#cdcdcd"></path><path d="M120.832 623.104l21.162667-22.528-22.186667-5.12 6.485333-45.909333 19.968-21.504c-31.914667 6.826667-73.557333 30.549333-85.333333 48.810667-22.698667 34.816-31.061333 160.938667-31.061333 160.938667l116.565333 0 70.997333-48.298667L120.832 623.104z" p-id="6801" fill="#cdcdcd"></path><path d="M131.242667 552.277333 126.122667 592.042667 150.698667 597.674667 127.658667 622.421333 221.354667 686.592 153.429333 525.994667Z" p-id="6802" fill="#cdcdcd"></path><path d="M207.530667 539.818667 191.829333 542.549333 186.538667 559.104 193.024 563.882667 195.072 613.546667 217.770667 667.136 220.16 620.714667 213.674667 560.298667 214.357333 554.154667Z" p-id="6803" fill="#cdcdcd"></path><path d="M779.434667 470.186667c3.072 32.085333 14.165333 55.808 61.952 55.808 27.648 0 53.76-18.773333 66.901333-45.909333l-9.728 1.877333c0 0 9.728-41.642667-2.901333-58.197333-4.949333-6.485333-12.117333-7.68-17.066667-7.68-8.192 0-14.165333 3.754667-14.165333 3.754667s-15.189333-22.698667-14.677333-48.469333c-5.973333 1.706667-15.872 4.096-26.282667 4.096-9.216 0-17.066667-1.877333-23.552-5.461333-13.482667 11.264-17.749333 29.184-22.357333 50.517333-1.024 4.778667-18.261333 31.914667-15.36 41.130667C763.904 466.773333 771.754667 470.186667 779.434667 470.186667z" p-id="6804" fill="#cdcdcd"></path><path d="M853.674667 365.226667c0 0 2.389333 34.133333 12.288 48.810667 14.165333-6.485333 52.224-5.290667 38.4 62.122667l13.824-2.730667c3.754667-28.330667 30.72-52.906667 29.184-97.621333-1.194667-34.816-25.258667-66.56-58.197333-51.029333-42.837333-34.133333-113.664-16.384-102.741333 21.162667C798.378667 386.901333 853.674667 365.226667 853.674667 365.226667z" p-id="6805" fill="#cdcdcd"></path><path d="M764.757333 590.506667l9.898667-14.165333-10.069333-12.288 10.752-23.893333c-7.68 1.877333-26.794667 15.701333-31.402667 26.282667-9.728 22.528-17.749333 46.933333-23.04 64.512l75.776 51.541333L764.757333 590.506667z" p-id="6806" fill="#cdcdcd"></path><path d="M781.653333 536.064 769.194667 564.053333 779.264 576.170667 769.365333 590.506667 802.645333 686.592 794.112 529.408Z" p-id="6807" fill="#cdcdcd"></path><path d="M963.413333 576.853333c-11.946667-18.261333-53.589333-41.984-85.333333-48.810667l19.968 21.504 6.314667 45.909333-22.186667 5.12 21.162667 22.528L806.741333 689.493333l70.997333 48.298667 116.565333 0C994.304 737.621333 985.941333 611.669333 963.413333 576.853333z" p-id="6808" fill="#cdcdcd"></path><path d="M896.341333 622.421333 873.301333 597.674667 897.877333 592.042667 892.757333 552.277333 870.570667 525.994667 802.645333 686.592Z" p-id="6809" fill="#cdcdcd"></path><path d="M806.229333 667.136 828.928 613.546667 830.976 563.882667 837.461333 559.104 832.170667 542.549333 816.469333 539.818667 809.642667 554.154667 810.325333 560.298667 803.84 620.714667Z" p-id="6810" fill="#cdcdcd"></path><path d="M342.186667 615.424 146.944 748.373333 877.056 748.373333 681.813333 615.424Z" p-id="6811" fill="#cdcdcd"></path></svg>