<?xml version="1.0" standalone="no"?><!DOCTYPE svg PUBLIC "-//W3C//DTD SVG 1.1//EN" "http://www.w3.org/Graphics/SVG/1.1/DTD/svg11.dtd"><svg t="1680828424018" class="icon" viewBox="0 0 1243 1024" version="1.1" xmlns="http://www.w3.org/2000/svg" p-id="15803" xmlns:xlink="http://www.w3.org/1999/xlink" width="242.7734375" height="200"><path d="M1096.829477 0.292488H146.24393a146.755784 146.755784 0 0 0-146.24393 146.24393v731.219652a146.755784 146.755784 0 0 0 146.24393 146.24393h950.585547a146.755784 146.755784 0 0 0 146.243931-146.24393v-731.219652a146.755784 146.755784 0 0 0-146.243931-146.24393zM621.536704 518.507855L249.638389 146.536418h743.79663zM520.994002 624.827192l48.845472 48.772351a73.121965 73.121965 0 0 0 103.394459 0l48.845473-48.772351 253.075121 253.002H267.91888zM146.24393 793.007712V250.296487l271.355613 271.28249z m679.229935-271.428735L1096.829477 250.296487v542.711225z" fill="#bfbfbf" p-id="15804"></path></svg>