<?xml version="1.0" encoding="UTF-8"?>
<!DOCTYPE svg PUBLIC "-//W3C//DTD SVG 1.1//EN" "http://www.w3.org/Graphics/SVG/1.1/DTD/svg11.dtd">
<svg xmlns="http://www.w3.org/2000/svg" version="1.1" width="803px" height="185px" style="shape-rendering:geometricPrecision; text-rendering:geometricPrecision; image-rendering:optimizeQuality; fill-rule:evenodd; clip-rule:evenodd" xmlns:xlink="http://www.w3.org/1999/xlink">
<g><path style="opacity:1" fill="#18406b" d="M 80.5,-0.5 C 87.1667,-0.5 93.8333,-0.5 100.5,-0.5C 145.178,7.01075 172.012,33.0108 181,77.5C 184.694,127.971 162.861,161.804 115.5,179C 64.4455,189.208 27.6121,171.041 5,124.5C 2.58252,117.87 0.74919,111.203 -0.5,104.5C -0.5,95.5 -0.5,86.5 -0.5,77.5C 8.80823,33.1927 35.8082,7.19274 80.5,-0.5 Z"/></g>
<g><path style="opacity:1" fill="#563d3d" d="M 86.5,5.5 C 88.8333,4.16667 91.1667,4.16667 93.5,5.5C 92.6236,5.36912 91.9569,5.70245 91.5,6.5C 92.376,7.25083 93.376,7.75083 94.5,8C 93.1068,9.17109 92.2735,10.6711 92,12.5C 89.6383,11.6476 87.8049,10.1476 86.5,8C 90.4557,6.88607 90.4557,6.05273 86.5,5.5 Z"/></g>
<g><path style="opacity:0.953" fill="#fefefe" d="M 802.5,111.5 C 802.5,116.167 802.5,120.833 802.5,125.5C 798.474,131.026 793.14,134.859 786.5,137C 772.792,140.268 759.125,142.601 745.5,144C 744.409,141.936 744.242,139.769 745,137.5C 748.567,134.023 751.9,130.356 755,126.5C 755.667,118.167 755.667,109.833 755,101.5C 742.482,109.016 731.482,118.349 722,129.5C 721.838,137.408 722.338,145.242 723.5,153C 722.328,155.055 720.661,155.722 718.5,155C 712.092,150.161 709.592,143.661 711,135.5C 704.498,142.339 699.164,150.005 695,158.5C 691.706,161.311 688.706,160.978 686,157.5C 683.109,152.501 682.109,147.167 683,141.5C 688.488,134.191 692.655,126.191 695.5,117.5C 696.5,117.5 697.5,117.5 698.5,117.5C 699.706,106.628 705.706,100.294 716.5,98.5C 717.134,92.5036 717.3,86.5036 717,80.5C 711.167,89 704,96.1667 695.5,102C 691.328,102.868 688.162,101.368 686,97.5C 685.182,94.7728 685.348,92.1062 686.5,89.5C 695.953,81.5487 704.953,73.0487 713.5,64C 718.376,59.4774 722.876,59.9774 727,65.5C 727.867,80.2206 726.201,94.554 722,108.5C 734.283,99.217 745.617,88.8837 756,77.5C 756.333,72.1667 756.667,66.8333 757,61.5C 760.032,50.8205 762.865,40.1538 765.5,29.5C 762.039,23.1259 763.706,21.2926 770.5,24C 773.106,25.9384 774.939,28.4384 776,31.5C 776.028,41.2899 776.028,50.9566 776,60.5C 779.5,55.6667 783,50.8333 786.5,46C 784.33,43.1973 783.663,40.1973 784.5,37C 790.284,37.967 792.951,41.467 792.5,47.5C 791.129,59.5733 786.962,70.5733 780,80.5C 776.333,85.1667 772.667,89.8333 769,94.5C 767.008,102.781 765.675,111.115 765,119.5C 773.465,113.879 782.799,110.546 793,109.5C 795.227,110.363 797.393,111.363 799.5,112.5C 800.417,111.873 801.417,111.539 802.5,111.5 Z M 704.5,128.5 C 706.509,122.65 709.009,116.983 712,111.5C 713.011,110.663 714.178,110.33 715.5,110.5C 716.823,113.281 716.656,115.947 715,118.5C 712.268,122.734 708.768,126.067 704.5,128.5 Z"/></g>
<g><path style="opacity:0.887" fill="#fefefe" d="M 256.5,25.5 C 258.346,27.6998 260.012,30.0331 261.5,32.5C 266.373,28.2297 272.04,25.8964 278.5,25.5C 278.649,26.552 278.483,27.552 278,28.5C 271.336,33.4823 266.336,39.8157 263,47.5C 261.391,53.1125 259.558,58.6125 257.5,64C 258.574,64.7387 259.241,65.7387 259.5,67C 257.922,72.812 256.422,78.6453 255,84.5C 253.33,86.6983 251.33,87.0317 249,85.5C 248.713,83.1093 248.213,80.7759 247.5,78.5C 251.76,66.1523 256.426,53.9857 261.5,42C 260.5,41.3333 259.5,41.3333 258.5,42C 250.968,47.5355 244.801,54.3688 240,62.5C 238.844,63.9928 238.01,63.8261 237.5,62C 242.597,50.8751 247.597,39.7085 252.5,28.5C 253.901,27.4793 255.235,26.4793 256.5,25.5 Z"/></g>
<g><path style="opacity:0.933" fill="#fefefe" d="M 713.5,30.5 C 725.426,34.7844 727.259,41.7844 719,51.5C 718.275,52.0585 717.442,52.3918 716.5,52.5C 708.755,49.5853 701.922,45.252 696,39.5C 695.505,37.5273 695.338,35.5273 695.5,33.5C 701.732,33.128 707.732,32.128 713.5,30.5 Z"/></g>
<g><path style="opacity:0.945" fill="#fefefe" d="M 652.5,33.5 C 659.759,33.4434 664.426,36.7768 666.5,43.5C 659.199,58.5645 653.365,74.2312 649,90.5C 648.333,92.5 648.333,94.5 649,96.5C 657.581,101.207 666.081,106.04 674.5,111C 675.61,113.737 675.777,116.571 675,119.5C 670.536,126.596 665.036,132.762 658.5,138C 656.167,138.667 653.833,138.667 651.5,138C 641.454,128.738 636.12,117.238 635.5,103.5C 632.744,105.091 630.911,107.424 630,110.5C 627.347,122.071 625.347,133.738 624,145.5C 616.718,147.908 611.885,145.408 609.5,138C 610.72,134.232 612.72,130.898 615.5,128C 614.196,127.196 613.529,126.029 613.5,124.5C 614.269,121.885 614.603,119.219 614.5,116.5C 610.486,116.666 606.486,116.499 602.5,116C 600.741,114.992 599.574,113.492 599,111.5C 591.167,121.333 583.333,131.167 575.5,141C 571.407,141.428 568.74,139.594 567.5,135.5C 570.247,121.433 573.247,107.433 576.5,93.5C 572.732,93.1182 569.732,91.4515 567.5,88.5C 568.924,86.2822 570.924,84.7822 573.5,84C 578.953,81.2766 584.286,81.2766 589.5,84C 590.081,84.8926 590.415,85.8926 590.5,87C 589.149,92.7828 588.649,98.6162 589,104.5C 594.456,97.7019 599.123,90.3686 603,82.5C 605.482,81.7307 607.315,82.7307 608.5,85.5C 606.173,93.1383 604.339,100.805 603,108.5C 608.974,106.526 612.974,102.526 615,96.5C 615.69,88.1741 616.19,79.8408 616.5,71.5C 620.182,71.3347 623.848,71.5014 627.5,72C 630.237,75.7046 631.903,79.8712 632.5,84.5C 633.914,85.624 635.414,86.624 637,87.5C 638.659,84.0547 638.826,80.5547 637.5,77C 641.372,70.2217 644.372,63.0551 646.5,55.5C 646.333,55.1667 646.167,54.8333 646,54.5C 640.478,60.5383 634.811,60.8716 629,55.5C 628.333,54.1667 628.333,52.8333 629,51.5C 637.018,45.6365 644.852,39.6365 652.5,33.5 Z M 630.5,91.5 C 634.584,90.9453 635.251,91.9453 632.5,94.5C 632.977,95.4776 633.643,96.3109 634.5,97C 630.185,97.1962 628.851,95.3628 630.5,91.5 Z M 648.5,110.5 C 654.039,112.179 659.372,114.346 664.5,117C 662.91,122.426 659.91,126.926 655.5,130.5C 653.803,129.636 652.637,128.303 652,126.5C 649.882,121.362 648.715,116.029 648.5,110.5 Z"/></g>
<g><path style="opacity:0.923" fill="#fefefe" d="M 406.5,34.5 C 407.496,34.4142 408.329,34.7476 409,35.5C 416.131,47.6559 418.297,60.6559 415.5,74.5C 419.085,73.4172 422.751,72.7506 426.5,72.5C 426.657,73.8734 426.49,75.2068 426,76.5C 420.5,82 415,87.5 409.5,93C 403.673,97.7498 397.34,101.75 390.5,105C 382.249,107.193 374.416,110.36 367,114.5C 365.635,113.407 365.301,112.074 366,110.5C 370.5,107.333 375,104.167 379.5,101C 380.696,100.346 380.696,99.8457 379.5,99.5C 360.701,110.453 341.535,120.787 322,130.5C 317.873,128.878 316.04,125.878 316.5,121.5C 318.144,121.286 319.644,121.62 321,122.5C 336.099,113.365 351.599,104.865 367.5,97C 366.5,94.9093 367.167,93.2426 369.5,92C 379.259,86.7866 389.259,82.1199 399.5,78C 403.787,74.7097 406.953,70.5431 409,65.5C 409.667,58.8333 409.667,52.1667 409,45.5C 407.971,42.6096 406.805,39.7763 405.5,37C 405.743,36.0979 406.077,35.2646 406.5,34.5 Z"/></g>
<g><path style="opacity:0.907" fill="#fefefe" d="M 207.5,38.5 C 210.056,39.5434 212.223,41.2101 214,43.5C 216.514,46.6777 219.014,49.8444 221.5,53C 214.097,75.2518 210.097,98.0851 209.5,121.5C 210.5,121.5 211.5,121.5 212.5,121.5C 212.668,132.334 209.668,142.167 203.5,151C 202.207,151.49 200.873,151.657 199.5,151.5C 199.428,148.807 199.095,146.14 198.5,143.5C 202.541,114.006 206.541,84.506 210.5,55C 209.944,50.1085 208.611,45.4418 206.5,41C 206.743,40.0979 207.077,39.2646 207.5,38.5 Z"/></g>
<g><path style="opacity:0.899" fill="#fefefe" d="M 500.5,38.5 C 507.305,38.0991 513.472,39.7658 519,43.5C 519.182,50.9858 515.516,54.9858 508,55.5C 505.53,55.6597 503.364,54.9931 501.5,53.5C 502.706,50.9206 504.039,48.4206 505.5,46C 495.929,45.8722 486.429,46.3722 477,47.5C 474.259,45.9326 473.092,43.5993 473.5,40.5C 482.778,42.0207 491.778,41.354 500.5,38.5 Z"/></g>
<g><path style="opacity:0.897" fill="#fefefe" d="M 382.5,40.5 C 384.446,41.2544 385.279,42.5878 385,44.5C 380.881,46.4711 377.047,48.8044 373.5,51.5C 375.766,53.8699 376.766,56.7032 376.5,60C 376.065,73.0185 370.565,83.1852 360,90.5C 357.483,88.3158 355.317,85.8158 353.5,83C 356.333,80.8333 359.167,78.6667 362,76.5C 363.971,70.2523 366.138,64.0857 368.5,58C 367.128,57.5983 365.795,57.0983 364.5,56.5C 358.009,59.5785 351.675,62.9118 345.5,66.5C 344.386,65.277 344.219,63.9437 345,62.5C 351.343,53.8144 359.843,48.981 370.5,48C 374.093,44.711 378.093,42.211 382.5,40.5 Z"/></g>
<g><path style="opacity:0.899" fill="#fefefe" d="M 252.5,108.5 C 250.858,110.081 248.858,110.747 246.5,110.5C 246.34,108.801 246.506,107.134 247,105.5C 252.667,94.1667 258.333,82.8333 264,71.5C 264.018,69.2028 263.851,66.8695 263.5,64.5C 266.588,64.3773 269.255,65.3773 271.5,67.5C 275.145,64.2257 277.812,60.2257 279.5,55.5C 279.167,55.1667 278.833,54.8333 278.5,54.5C 276.705,55.2651 274.872,55.9318 273,56.5C 271.72,56.3865 270.887,55.7199 270.5,54.5C 275.265,49.9675 280.932,48.1341 287.5,49C 288.167,50 288.833,51 289.5,52C 281.151,65.3521 271.651,77.8521 261,89.5C 258.796,92.2296 257.463,95.2296 257,98.5C 267.92,90.7062 279.92,85.3728 293,82.5C 297.321,86.1814 298.654,90.8481 297,96.5C 293.567,105.037 289.401,113.037 284.5,120.5C 292.636,123.296 298.636,128.629 302.5,136.5C 301.872,138.258 300.872,139.758 299.5,141C 295.979,142.674 292.313,143.84 288.5,144.5C 288.998,141.171 289.998,138.005 291.5,135C 288.543,130.675 284.876,127.009 280.5,124C 277.169,123.996 274.002,124.829 271,126.5C 264.14,123.74 258.14,119.74 253,114.5C 252.505,112.527 252.338,110.527 252.5,108.5 Z M 252.5,108.5 C 262.943,99.1051 274.943,92.1051 288.5,87.5C 291.905,90.2663 292.405,93.5996 290,97.5C 285.797,102.738 281.964,108.238 278.5,114C 269.889,112.183 261.223,110.35 252.5,108.5 Z M 259.5,115.5 C 262.019,114.206 264.352,114.706 266.5,117C 264.041,117.239 261.707,116.739 259.5,115.5 Z"/></g>
<g><path style="opacity:0.878" fill="#fefefe" d="M 381.5,48.5 C 382.873,48.3433 384.207,48.51 385.5,49C 384.068,54.0926 383.234,59.2593 383,64.5C 385.226,56.8303 387.393,56.9969 389.5,65C 389.239,71.0345 386.573,75.5345 381.5,78.5C 378.433,76.5314 377.1,73.6981 377.5,70C 378.514,62.7619 379.848,55.5953 381.5,48.5 Z"/></g>
<g><path style="opacity:0.904" fill="#fefefe" d="M 576.5,51.5 C 582.245,51.2111 587.912,51.7111 593.5,53C 600.053,56.8344 599.72,60.1677 592.5,63C 587.756,65.2049 582.923,65.7049 578,64.5C 576.872,62.6547 576.372,60.6547 576.5,58.5C 575.5,58.5 574.5,58.5 573.5,58.5C 573.15,55.5466 574.15,53.2133 576.5,51.5 Z"/></g>
<g><path style="opacity:0.927" fill="#fefefe" d="M 512.5,58.5 C 518.872,57.7702 523.706,60.1035 527,65.5C 526.456,84.1038 520.623,100.937 509.5,116C 497.933,116.706 486.6,118.706 475.5,122C 470.5,122.667 465.5,122.667 460.5,122C 459.167,120.667 457.833,119.333 456.5,118C 462.952,116.479 469.285,114.645 475.5,112.5C 474.754,111.264 474.421,109.93 474.5,108.5C 476.262,108.643 477.929,108.309 479.5,107.5C 480.318,104.893 480.818,102.226 481,99.5C 483.796,100.211 486.63,100.878 489.5,101.5C 489.833,101 490.167,100.5 490.5,100C 489.593,94.8464 489.426,89.6798 490,84.5C 488.939,87.5616 487.106,90.0616 484.5,92C 477.828,97.0061 470.495,100.339 462.5,102C 460.671,100.887 459.837,99.3867 460,97.5C 468.898,87.9321 478.398,79.0988 488.5,71C 496.152,66.0086 504.152,61.8419 512.5,58.5 Z M 516.5,64.5 C 520.314,67.1521 521.481,70.8187 520,75.5C 517.452,84.4801 514.118,93.1468 510,101.5C 508.649,103.019 507.149,104.352 505.5,105.5C 504.858,101.977 503.692,98.6438 502,95.5C 501.501,91.5138 501.334,87.5138 501.5,83.5C 495.501,83.3639 494.334,81.0305 498,76.5C 503.373,71.0767 509.54,67.0767 516.5,64.5 Z"/></g>
<g><path style="opacity:1" fill="#f0f2f5" d="M 86.5,5.5 C 90.4557,6.05273 90.4557,6.88607 86.5,8C 87.8049,10.1476 89.6383,11.6476 92,12.5C 92.2735,10.6711 93.1068,9.17109 94.5,8C 93.376,7.75083 92.376,7.25083 91.5,6.5C 91.9569,5.70245 92.6236,5.36912 93.5,5.5C 130.537,8.03616 156.371,26.3695 171,60.5C 182.78,100.153 172.947,133.32 141.5,160C 104.32,183.408 68.3197,181.741 33.5,155C 3.21197,124.107 -2.9547,88.9403 15,49.5C 31.2034,22.4796 55.0367,7.81294 86.5,5.5 Z"/></g>
<g><path style="opacity:1" fill="#e71312" d="M 35.5,51.5 C 36.9117,53.9801 38.5784,56.3134 40.5,58.5C 38.8495,63.7686 37.5162,69.102 36.5,74.5C 35.3163,80.2577 34.3163,86.0911 33.5,92C 36.4508,98.8499 35.7841,105.35 31.5,111.5C 30.675,112.386 29.675,112.719 28.5,112.5C 28.5,112.167 28.5,111.833 28.5,111.5C 30.1077,94.1261 32.1077,76.7928 34.5,59.5C 34.4479,56.6776 33.7813,54.011 32.5,51.5C 33.4246,50.4376 34.4246,50.4376 35.5,51.5 Z"/></g>
<g><path style="opacity:1" fill="#1e426b" d="M 140.5,129.5 C 140.371,127.784 140.038,126.117 139.5,124.5C 141.829,125.749 143.662,125.082 145,122.5C 147.789,116.115 147.456,109.782 144,103.5C 143.667,105.167 143.333,106.833 143,108.5C 142.26,106.681 141.093,105.348 139.5,104.5C 139.918,103.778 140.584,103.278 141.5,103C 136.9,103.011 132.567,102.011 128.5,100C 127.695,98.8873 127.028,97.7206 126.5,96.5C 129.858,92.5635 129.192,91.2302 124.5,92.5C 124.5,91.8333 124.167,91.5 123.5,91.5C 136.615,88.1 147.282,80.9333 155.5,70C 153.153,69.6664 150.819,69.833 148.5,70.5C 150.569,62.6027 149.402,55.2694 145,48.5C 145.316,52.1262 145.816,55.7929 146.5,59.5C 146.557,68.4218 142.223,73.4218 133.5,74.5C 133.5,72.8333 133.5,71.1667 133.5,69.5C 134.219,67.2362 134.552,64.9029 134.5,62.5C 135.129,60.5351 135.796,58.5351 136.5,56.5C 135.471,53.4855 134.471,50.4855 133.5,47.5C 135.492,47.6715 137.158,47.0049 138.5,45.5C 139.115,48.4362 140.282,51.1029 142,53.5C 142.756,51.1913 142.256,49.1913 140.5,47.5C 141.167,46.8333 141.833,46.1667 142.5,45.5C 137.496,40.7326 131.663,38.7326 125,39.5C 121.537,38.2178 118.037,36.8845 114.5,35.5C 111.056,36.4682 107.722,37.6349 104.5,39C 104.833,39.3333 105.167,39.6667 105.5,40C 101.394,39.694 98.2278,41.194 96,44.5C 94.3831,43.4642 94.2164,42.2975 95.5,41C 93.3763,39.4178 91.2096,39.2512 89,40.5C 88.2106,42.5802 87.0439,44.4135 85.5,46C 86.3185,47.3188 87.3185,48.4855 88.5,49.5C 89.2715,47.1378 90.1048,44.8045 91,42.5C 91.1992,44.4025 92.0325,45.9025 93.5,47C 90.4494,50.1361 86.9494,52.6361 83,54.5C 82.5065,56.1341 82.3398,57.8008 82.5,59.5C 81.5,59.5 80.5,59.5 79.5,59.5C 79.5,61.1667 79.5,62.8333 79.5,64.5C 80.5,64.5 81.5,64.5 82.5,64.5C 83.3957,59.0325 85.5624,58.3658 89,62.5C 88.6508,58.6238 89.4841,58.6238 91.5,62.5C 93.2141,61.3915 93.8808,62.0582 93.5,64.5C 95.4832,64.1568 96.8166,64.8235 97.5,66.5C 97.7373,67.791 97.404,68.791 96.5,69.5C 94.1089,68.5924 91.7756,68.4257 89.5,69C 87.9632,67.8904 87.2965,66.3904 87.5,64.5C 84.5933,64.5752 81.9266,65.4086 79.5,67C 78.5695,69.9067 77.5695,72.74 76.5,75.5C 70.6573,77.8359 65.1573,80.8359 60,84.5C 59.8333,84.1667 59.6667,83.8333 59.5,83.5C 65.8333,74.8333 72.1667,66.1667 78.5,57.5C 78.1131,56.2801 77.2798,55.6135 76,55.5C 73.2098,56.0943 70.7098,57.2609 68.5,59C 70.3126,58.9536 71.9793,59.1203 73.5,59.5C 72.4986,62.1732 70.9986,64.5065 69,66.5C 67.9148,65.7069 66.7481,65.0402 65.5,64.5C 62.7062,72.087 59.3728,79.4203 55.5,86.5C 53.9557,86.2969 52.6223,85.6302 51.5,84.5C 50.016,85.4669 49.016,86.8002 48.5,88.5C 46.9731,88.573 45.9731,87.9063 45.5,86.5C 45.9088,83.6777 45.9088,80.8444 45.5,78C 44.2575,77.6886 43.2575,78.1886 42.5,79.5C 41.2175,76.6281 41.2175,73.7947 42.5,71C 44.1341,70.5065 45.8008,70.3398 47.5,70.5C 47.3505,71.552 47.5172,72.552 48,73.5C 48.5231,69.8577 49.6898,66.5243 51.5,63.5C 53.3386,62.4923 54.6719,60.9923 55.5,59C 56.8333,58.6667 58.1667,58.3333 59.5,58C 58.6634,56.9887 58.33,55.8221 58.5,54.5C 59.4654,51.9152 60.7988,51.4152 62.5,53C 60.0665,59.4675 57.7331,65.9675 55.5,72.5C 55.5454,75.1895 56.8787,76.5228 59.5,76.5C 60.7748,69.8703 61.9415,63.2037 63,56.5C 65.6642,51.3638 68.8309,46.6971 72.5,42.5C 72.8212,40.9519 73.8212,40.2852 75.5,40.5C 76.2943,38.1272 77.2943,35.7938 78.5,33.5C 74.8927,32.5108 71.226,32.1774 67.5,32.5C 65.8008,32.3398 64.1341,32.5065 62.5,33C 57.3937,36.048 52.0603,38.548 46.5,40.5C 42.6099,42.219 39.1099,44.5524 36,47.5C 35.51,48.7932 35.3433,50.1266 35.5,51.5C 34.4246,50.4376 33.4246,50.4376 32.5,51.5C 33.7813,54.011 34.4479,56.6776 34.5,59.5C 32.1077,76.7928 30.1077,94.1261 28.5,111.5C 18.2717,89.0043 19.4384,67.0043 32,45.5C 53.9634,15.8801 82.4634,7.04674 117.5,19C 150.861,36.224 164.027,63.3907 157,100.5C 153.778,111.533 148.278,121.2 140.5,129.5 Z"/></g>
<g><path style="opacity:1" fill="#e91b16" d="M 134.5,62.5 C 134.552,64.9029 134.219,67.2362 133.5,69.5C 132.18,70.9418 130.514,71.6085 128.5,71.5C 128.087,65.963 128.92,60.6297 131,55.5C 131.32,58.5399 131.32,61.5399 131,64.5C 131.915,63.6721 132.581,62.6721 133,61.5C 133.383,62.056 133.883,62.3893 134.5,62.5 Z"/></g>
<g><path style="opacity:1" fill="#e31a18" d="M 72.5,42.5 C 68.8309,46.6971 65.6642,51.3638 63,56.5C 61.9415,63.2037 60.7748,69.8703 59.5,76.5C 56.8787,76.5228 55.5454,75.1895 55.5,72.5C 57.7331,65.9675 60.0665,59.4675 62.5,53C 60.7988,51.4152 59.4654,51.9152 58.5,54.5C 55.027,56.6367 52.6936,59.6367 51.5,63.5C 50.7611,63.631 50.0944,63.4643 49.5,63C 51.5328,60.1041 52.8662,56.9374 53.5,53.5C 55.4721,50.2349 57.4721,46.9015 59.5,43.5C 60.1667,43.5 60.8333,43.5 61.5,43.5C 62.461,47.143 64.1276,47.4763 66.5,44.5C 68.2972,43.2702 70.2972,42.6036 72.5,42.5 Z"/></g>
<g><path style="opacity:1" fill="#9e9ba3" d="M 58.5,54.5 C 58.33,55.8221 58.6634,56.9887 59.5,58C 58.1667,58.3333 56.8333,58.6667 55.5,59C 54.6719,60.9923 53.3386,62.4923 51.5,63.5C 52.6936,59.6367 55.027,56.6367 58.5,54.5 Z"/></g>
<g><path style="opacity:1" fill="#b1b1b3" d="M 46.5,40.5 C 49.4781,41.3051 52.4781,41.6384 55.5,41.5C 53.3674,43.0905 51.7007,45.0905 50.5,47.5C 51.5485,49.597 52.5485,51.597 53.5,53.5C 52.8662,56.9374 51.5328,60.1041 49.5,63C 50.0944,63.4643 50.7611,63.631 51.5,63.5C 49.6898,66.5243 48.5231,69.8577 48,73.5C 47.5172,72.552 47.3505,71.552 47.5,70.5C 45.8008,70.3398 44.1341,70.5065 42.5,71C 41.2175,73.7947 41.2175,76.6281 42.5,79.5C 43.2575,78.1886 44.2575,77.6886 45.5,78C 45.9088,80.8444 45.9088,83.6777 45.5,86.5C 44.1295,82.963 41.6295,80.6297 38,79.5C 37.8019,77.6183 37.3019,75.9516 36.5,74.5C 37.5162,69.102 38.8495,63.7686 40.5,58.5C 38.5784,56.3134 36.9117,53.9801 35.5,51.5C 35.3433,50.1266 35.51,48.7932 36,47.5C 39.1099,44.5524 42.6099,42.219 46.5,40.5 Z"/></g>
<g><path style="opacity:1" fill="#9e9da4" d="M 60.5,38.5 C 62.69,39.7476 63.0234,41.4143 61.5,43.5C 60.8333,43.5 60.1667,43.5 59.5,43.5C 60.7951,40.7451 59.7951,39.0784 56.5,38.5C 57.8084,37.3744 59.1417,37.3744 60.5,38.5 Z"/></g>
<g><path style="opacity:1" fill="#435d7d" d="M 67.5,32.5 C 66.6935,33.7281 65.6935,34.7281 64.5,35.5C 61.9796,34.4502 60.6462,35.4502 60.5,38.5C 59.1417,37.3744 57.8084,37.3744 56.5,38.5C 59.7951,39.0784 60.7951,40.7451 59.5,43.5C 57.4721,46.9015 55.4721,50.2349 53.5,53.5C 52.5485,51.597 51.5485,49.597 50.5,47.5C 51.7007,45.0905 53.3674,43.0905 55.5,41.5C 52.4781,41.6384 49.4781,41.3051 46.5,40.5C 52.0603,38.548 57.3937,36.048 62.5,33C 64.1341,32.5065 65.8008,32.3398 67.5,32.5 Z"/></g>
<g><path style="opacity:1" fill="#20426b" d="M 64.5,35.5 C 65.4959,35.4142 66.3292,35.7476 67,36.5C 67.4298,39.1922 67.2631,41.8589 66.5,44.5C 64.1276,47.4763 62.461,47.143 61.5,43.5C 63.0234,41.4143 62.69,39.7476 60.5,38.5C 60.6462,35.4502 61.9796,34.4502 64.5,35.5 Z"/></g>
<g><path style="opacity:1" fill="#b4b3b4" d="M 134.5,62.5 C 133.883,62.3893 133.383,62.056 133,61.5C 132.581,62.6721 131.915,63.6721 131,64.5C 131.32,61.5399 131.32,58.5399 131,55.5C 128.92,60.6297 128.087,65.963 128.5,71.5C 130.514,71.6085 132.18,70.9418 133.5,69.5C 133.5,71.1667 133.5,72.8333 133.5,74.5C 130.485,76.6744 127.151,78.3411 123.5,79.5C 123.068,78.2905 122.401,77.2905 121.5,76.5C 126.634,70.8112 127.968,64.4779 125.5,57.5C 127.5,55.8333 129.5,54.1667 131.5,52.5C 131.167,52.1667 130.833,51.8333 130.5,51.5C 125.894,54.5367 120.894,56.7034 115.5,58C 113.316,60.0165 111.316,62.1831 109.5,64.5C 113.265,63.798 116.932,62.1313 120.5,59.5C 121.086,59.7093 121.586,60.0426 122,60.5C 122.7,66.6019 120.533,71.4353 115.5,75C 116.072,77.0736 117.405,78.2402 119.5,78.5C 117.832,80.4786 117.166,82.812 117.5,85.5C 116.833,85.8333 116.167,86.1667 115.5,86.5C 114.799,82.6992 113.632,79.0325 112,75.5C 109.372,74.7231 106.872,73.7231 104.5,72.5C 103.769,72.0582 102.769,71.8915 101.5,72C 100.74,70.5589 100.074,69.0589 99.5,67.5C 99.0431,66.7025 98.3764,66.3691 97.5,66.5C 96.8166,64.8235 95.4832,64.1568 93.5,64.5C 93.8808,62.0582 93.2141,61.3915 91.5,62.5C 89.4841,58.6238 88.6508,58.6238 89,62.5C 85.5624,58.3658 83.3957,59.0325 82.5,64.5C 81.5,64.5 80.5,64.5 79.5,64.5C 79.5,62.8333 79.5,61.1667 79.5,59.5C 80.5,59.5 81.5,59.5 82.5,59.5C 82.3398,57.8008 82.5065,56.1341 83,54.5C 86.9494,52.6361 90.4494,50.1361 93.5,47C 92.0325,45.9025 91.1992,44.4025 91,42.5C 90.1048,44.8045 89.2715,47.1378 88.5,49.5C 87.3185,48.4855 86.3185,47.3188 85.5,46C 87.0439,44.4135 88.2106,42.5802 89,40.5C 91.2096,39.2512 93.3763,39.4178 95.5,41C 94.2164,42.2975 94.3831,43.4642 96,44.5C 98.2278,41.194 101.394,39.694 105.5,40C 105.167,39.6667 104.833,39.3333 104.5,39C 107.722,37.6349 111.056,36.4682 114.5,35.5C 118.037,36.8845 121.537,38.2178 125,39.5C 131.663,38.7326 137.496,40.7326 142.5,45.5C 141.833,46.1667 141.167,46.8333 140.5,47.5C 142.256,49.1913 142.756,51.1913 142,53.5C 140.282,51.1029 139.115,48.4362 138.5,45.5C 137.158,47.0049 135.492,47.6715 133.5,47.5C 134.471,50.4855 135.471,53.4855 136.5,56.5C 135.796,58.5351 135.129,60.5351 134.5,62.5 Z"/></g>
<g><path style="opacity:1" fill="#2b4d73" d="M 102.5,56.5 C 104.117,58.9796 104.45,61.6463 103.5,64.5C 101.83,61.8872 101.497,59.2206 102.5,56.5 Z"/></g>
<g><path style="opacity:1" fill="#294b72" d="M 96.5,56.5 C 98.1852,57.1837 99.1852,58.517 99.5,60.5C 99.1667,60.8333 98.8333,61.1667 98.5,61.5C 97.2798,60.2889 96.1131,60.2889 95,61.5C 94.36,59.4567 94.86,57.7901 96.5,56.5 Z"/></g>
<g><path style="opacity:1" fill="#ea1d17" d="M 121.5,76.5 C 120.5,76.8333 119.833,77.5 119.5,78.5C 117.405,78.2402 116.072,77.0736 115.5,75C 120.533,71.4353 122.7,66.6019 122,60.5C 121.586,60.0426 121.086,59.7093 120.5,59.5C 116.932,62.1313 113.265,63.798 109.5,64.5C 111.316,62.1831 113.316,60.0165 115.5,58C 120.894,56.7034 125.894,54.5367 130.5,51.5C 130.833,51.8333 131.167,52.1667 131.5,52.5C 129.5,54.1667 127.5,55.8333 125.5,57.5C 127.968,64.4779 126.634,70.8112 121.5,76.5 Z"/></g>
<g><path style="opacity:1" fill="#b4b5b6" d="M 67.5,32.5 C 71.226,32.1774 74.8927,32.5108 78.5,33.5C 77.2943,35.7938 76.2943,38.1272 75.5,40.5C 73.8212,40.2852 72.8212,40.9519 72.5,42.5C 70.2972,42.6036 68.2972,43.2702 66.5,44.5C 67.2631,41.8589 67.4298,39.1922 67,36.5C 66.3292,35.7476 65.4959,35.4142 64.5,35.5C 65.6935,34.7281 66.6935,33.7281 67.5,32.5 Z"/></g>
<g><path style="opacity:1" fill="#e81010" d="M 123.5,91.5 C 122.761,91.631 122.094,91.4643 121.5,91C 124.837,88.9978 127.337,86.4978 129,83.5C 119.186,89.3199 109.352,94.9866 99.5,100.5C 98.5041,100.414 97.6708,100.748 97,101.5C 94.8282,100.491 93.6615,98.8244 93.5,96.5C 97.0034,96.8711 100.003,95.8711 102.5,93.5C 106.674,90.9123 111.007,88.579 115.5,86.5C 116.167,86.1667 116.833,85.8333 117.5,85.5C 120.838,84.823 122.838,82.823 123.5,79.5C 127.151,78.3411 130.485,76.6744 133.5,74.5C 142.223,73.4218 146.557,68.4218 146.5,59.5C 145.816,55.7929 145.316,52.1262 145,48.5C 149.402,55.2694 150.569,62.6027 148.5,70.5C 150.819,69.833 153.153,69.6664 155.5,70C 147.282,80.9333 136.615,88.1 123.5,91.5 Z"/></g>
<g><path style="opacity:0.895" fill="#fefefe" d="M 324.5,67.5 C 326.986,71.1377 328.986,75.1377 330.5,79.5C 332.332,78.7515 333.999,77.7515 335.5,76.5C 335.833,78 336.167,79.5 336.5,81C 334.21,87.9439 333.043,95.1106 333,102.5C 332.311,103.357 331.478,104.023 330.5,104.5C 325.107,101.392 321.941,96.7249 321,90.5C 319.989,82.4009 321.156,74.7342 324.5,67.5 Z"/></g>
<g><path style="opacity:1" fill="#e91e18" d="M 97.5,66.5 C 98.3764,66.3691 99.0431,66.7025 99.5,67.5C 100.074,69.0589 100.74,70.5589 101.5,72C 102.769,71.8915 103.769,72.0582 104.5,72.5C 104.5,73.5 104.5,74.5 104.5,75.5C 103.85,77.4352 103.517,79.4352 103.5,81.5C 102.566,82.5676 102.232,83.901 102.5,85.5C 99.9619,85.882 98.1286,84.5487 97,81.5C 96.5012,77.5138 96.3345,73.5138 96.5,69.5C 97.404,68.791 97.7373,67.791 97.5,66.5 Z"/></g>
<g><path style="opacity:1" fill="#264972" d="M 104.5,9.5 C 133.187,14.6826 154.02,30.3492 167,56.5C 178.346,87.78 172.346,115.113 149,138.5C 149.203,142.637 147.37,144.137 143.5,143C 141.531,138.953 142.864,136.953 147.5,137C 169.432,115.346 175.599,89.8459 166,60.5C 169.962,80.4357 167.295,99.4357 158,117.5C 154.373,121.767 151.539,126.434 149.5,131.5C 148.167,131.5 146.833,131.5 145.5,131.5C 145.238,130.022 145.571,128.689 146.5,127.5C 150.542,124.622 153.709,120.955 156,116.5C 166.254,97.3772 168.254,77.3772 162,56.5C 151.742,30.8652 133.075,16.8652 106,14.5C 103.676,13.2247 103.176,11.558 104.5,9.5 Z"/></g>
<g><path style="opacity:1" fill="#264972" d="M 73.5,9.5 C 78.0486,9.93227 78.5486,11.5989 75,14.5C 47.6463,16.547 28.9796,30.547 19,56.5C 12.7342,77.3913 14.7342,97.3913 25,116.5C 27.2614,120.929 30.428,124.596 34.5,127.5C 35.4287,128.689 35.762,130.022 35.5,131.5C 34.1667,131.5 32.8333,131.5 31.5,131.5C 31.6567,130.127 31.49,128.793 31,127.5C 19.0266,114.203 13.1932,98.5359 13.5,80.5C 13.8296,72.7092 14.6629,65.0425 16,57.5C 5.24497,87.3921 10.745,113.892 32.5,137C 37.6366,136.453 39.3032,138.453 37.5,143C 33.7072,144.052 31.7072,142.552 31.5,138.5C 8.44352,115.001 2.61019,87.6679 14,56.5C 25.963,31.6062 45.463,16.4395 72.5,11C 73.056,10.6174 73.3893,10.1174 73.5,9.5 Z"/></g>
<g><path style="opacity:1" fill="#22416a" d="M 104.5,72.5 C 106.872,73.7231 109.372,74.7231 112,75.5C 113.632,79.0325 114.799,82.6992 115.5,86.5C 111.007,88.579 106.674,90.9123 102.5,93.5C 103.156,91.516 103.822,89.516 104.5,87.5C 104.253,86.2867 103.586,85.62 102.5,85.5C 102.232,83.901 102.566,82.5676 103.5,81.5C 103.435,81.9382 103.601,82.2716 104,82.5C 107.523,80.4114 108.19,77.7448 106,74.5C 105.617,75.056 105.117,75.3893 104.5,75.5C 104.5,74.5 104.5,73.5 104.5,72.5 Z"/></g>
<g><path style="opacity:1" fill="#a9acaf" d="M 103.5,81.5 C 103.517,79.4352 103.85,77.4352 104.5,75.5C 105.117,75.3893 105.617,75.056 106,74.5C 108.19,77.7448 107.523,80.4114 104,82.5C 103.601,82.2716 103.435,81.9382 103.5,81.5 Z"/></g>
<g><path style="opacity:1" fill="#193f6a" d="M 36.5,74.5 C 37.3019,75.9516 37.8019,77.6183 38,79.5C 41.6295,80.6297 44.1295,82.963 45.5,86.5C 45.9731,87.9063 46.9731,88.573 48.5,88.5C 46.3761,95.8135 47.5427,102.48 52,108.5C 52.4753,117.14 53.642,125.64 55.5,134C 55.8333,134.167 56.1667,134.333 56.5,134.5C 58.2489,127.799 60.0822,121.133 62,114.5C 63,113.5 64,112.5 65,111.5C 65.266,107.019 66.0993,102.686 67.5,98.5C 75.8717,96.2228 79.5384,99.2228 78.5,107.5C 80.4658,108.372 82.4658,108.205 84.5,107C 85.6719,105.132 85.5053,103.298 84,101.5C 81.7134,98.5379 78.8801,96.3712 75.5,95C 76.3281,93.0077 77.6614,91.5077 79.5,90.5C 81.7522,89.6669 83.9189,89.6669 86,90.5C 86.9538,100.954 88.4538,111.287 90.5,121.5C 93.4797,121.759 95.313,120.426 96,117.5C 98.0508,111.978 99.2175,106.311 99.5,100.5C 109.352,94.9866 119.186,89.3199 129,83.5C 127.337,86.4978 124.837,88.9978 121.5,91C 122.094,91.4643 122.761,91.631 123.5,91.5C 124.167,91.5 124.5,91.8333 124.5,92.5C 120.852,95.1419 117.185,97.8086 113.5,100.5C 114.248,102.332 115.248,103.999 116.5,105.5C 120.502,103.161 123.835,100.161 126.5,96.5C 127.028,97.7206 127.695,98.8873 128.5,100C 132.567,102.011 136.9,103.011 141.5,103C 140.584,103.278 139.918,103.778 139.5,104.5C 137.006,106.799 134.506,109.133 132,111.5C 131.502,114.817 131.335,118.15 131.5,121.5C 133.6,121.523 135.433,120.856 137,119.5C 138.876,120.619 139.709,122.286 139.5,124.5C 140.038,126.117 140.371,127.784 140.5,129.5C 117.694,151.793 91.3606,156.96 61.5,145C 46.6733,138.006 35.6733,127.173 28.5,112.5C 29.675,112.719 30.675,112.386 31.5,111.5C 35.7841,105.35 36.4508,98.8499 33.5,92C 34.3163,86.0911 35.3163,80.2577 36.5,74.5 Z"/></g>
<g><path style="opacity:1" fill="#2d4168" d="M 121.5,76.5 C 122.401,77.2905 123.068,78.2905 123.5,79.5C 122.838,82.823 120.838,84.823 117.5,85.5C 117.166,82.812 117.832,80.4786 119.5,78.5C 119.833,77.5 120.5,76.8333 121.5,76.5 Z"/></g>
<g><path style="opacity:1" fill="#b3b4b6" d="M 96.5,69.5 C 96.3345,73.5138 96.5012,77.5138 97,81.5C 98.1286,84.5487 99.9619,85.882 102.5,85.5C 103.586,85.62 104.253,86.2867 104.5,87.5C 103.822,89.516 103.156,91.516 102.5,93.5C 100.003,95.8711 97.0034,96.8711 93.5,96.5C 93.6615,98.8244 94.8282,100.491 97,101.5C 97.6708,100.748 98.5041,100.414 99.5,100.5C 99.2175,106.311 98.0508,111.978 96,117.5C 95.313,120.426 93.4797,121.759 90.5,121.5C 88.4538,111.287 86.9538,100.954 86,90.5C 83.9189,89.6669 81.7522,89.6669 79.5,90.5C 81.388,86.715 82.7214,82.715 83.5,78.5C 82.4796,74.4906 80.1463,73.4906 76.5,75.5C 77.5695,72.74 78.5695,69.9067 79.5,67C 81.9266,65.4086 84.5933,64.5752 87.5,64.5C 87.2965,66.3904 87.9632,67.8904 89.5,69C 91.7756,68.4257 94.1089,68.5924 96.5,69.5 Z"/></g>
<g><path style="opacity:1" fill="#b3b3b5" d="M 55.5,86.5 C 54.0857,88.5983 54.7524,89.5983 57.5,89.5C 57.8333,89.5 58.1667,89.5 58.5,89.5C 59.775,94.1086 62.775,97.1086 67.5,98.5C 66.0993,102.686 65.266,107.019 65,111.5C 64,112.5 63,113.5 62,114.5C 60.0822,121.133 58.2489,127.799 56.5,134.5C 56.1667,134.333 55.8333,134.167 55.5,134C 53.642,125.64 52.4753,117.14 52,108.5C 47.5427,102.48 46.3761,95.8135 48.5,88.5C 49.016,86.8002 50.016,85.4669 51.5,84.5C 52.6223,85.6302 53.9557,86.2969 55.5,86.5 Z"/></g>
<g><path style="opacity:1" fill="#e80e0f" d="M 146.5,100.5 C 146.5,100.167 146.5,99.8333 146.5,99.5C 147.59,96.3188 147.59,92.9855 146.5,89.5C 147.822,89.33 148.989,89.6634 150,90.5C 153.004,94.6879 154.171,99.1879 153.5,104C 148.939,106.797 146.606,105.631 146.5,100.5 Z"/></g>
<g><path style="opacity:1" fill="#e51313" d="M 76.5,75.5 C 80.1463,73.4906 82.4796,74.4906 83.5,78.5C 82.7214,82.715 81.388,86.715 79.5,90.5C 77.6614,91.5077 76.3281,93.0077 75.5,95C 78.8801,96.3712 81.7134,98.5379 84,101.5C 85.5053,103.298 85.6719,105.132 84.5,107C 82.4658,108.205 80.4658,108.372 78.5,107.5C 79.5384,99.2228 75.8717,96.2228 67.5,98.5C 62.775,97.1086 59.775,94.1086 58.5,89.5C 63.006,90.4178 67.506,91.4178 72,92.5C 74.5076,90.819 76.0076,88.4857 76.5,85.5C 79.1717,83.6086 80.1717,80.9419 79.5,77.5C 77.901,77.2322 76.5676,77.5655 75.5,78.5C 68.5231,80.6511 62.5231,84.3178 57.5,89.5C 54.7524,89.5983 54.0857,88.5983 55.5,86.5C 59.3728,79.4203 62.7062,72.087 65.5,64.5C 66.7481,65.0402 67.9148,65.7069 69,66.5C 70.9986,64.5065 72.4986,62.1732 73.5,59.5C 71.9793,59.1203 70.3126,58.9536 68.5,59C 70.7098,57.2609 73.2098,56.0943 76,55.5C 77.2798,55.6135 78.1131,56.2801 78.5,57.5C 72.1667,66.1667 65.8333,74.8333 59.5,83.5C 59.6667,83.8333 59.8333,84.1667 60,84.5C 65.1573,80.8359 70.6573,77.8359 76.5,75.5 Z"/></g>
<g><path style="opacity:1" fill="#593350" d="M 62.5,93.5 C 63.7082,92.218 65.0416,92.218 66.5,93.5C 65.1916,94.6256 63.8583,94.6256 62.5,93.5 Z"/></g>
<g><path style="opacity:1" fill="#ada9ac" d="M 76.5,85.5 C 75.5318,83.3926 75.1984,81.0593 75.5,78.5C 76.5676,77.5655 77.901,77.2322 79.5,77.5C 80.1717,80.9419 79.1717,83.6086 76.5,85.5 Z"/></g>
<g><path style="opacity:1" fill="#233e67" d="M 75.5,78.5 C 75.1984,81.0593 75.5318,83.3926 76.5,85.5C 76.0076,88.4857 74.5076,90.819 72,92.5C 67.506,91.4178 63.006,90.4178 58.5,89.5C 58.1667,89.5 57.8333,89.5 57.5,89.5C 62.5231,84.3178 68.5231,80.6511 75.5,78.5 Z"/></g>
<g><path style="opacity:1" fill="#a8acb1" d="M 132.5,89.5 C 133.376,89.3691 134.043,89.7025 134.5,90.5C 133.167,91.5 133.167,92.5 134.5,93.5C 133.923,95.5499 132.59,96.5499 130.5,96.5C 130.4,93.8915 131.067,91.5582 132.5,89.5 Z"/></g>
<g><path style="opacity:1" fill="#e51112" d="M 126.5,96.5 C 123.835,100.161 120.502,103.161 116.5,105.5C 115.248,103.999 114.248,102.332 113.5,100.5C 117.185,97.8086 120.852,95.1419 124.5,92.5C 129.192,91.2302 129.858,92.5635 126.5,96.5 Z"/></g>
<g><path style="opacity:1" fill="#a8acb0" d="M 146.5,99.5 C 146.5,99.8333 146.5,100.167 146.5,100.5C 143.778,101.839 142.111,100.839 141.5,97.5C 141.808,96.6919 142.308,96.0253 143,95.5C 144.376,96.7051 145.542,98.0384 146.5,99.5 Z"/></g>
<g><path style="opacity:0.913" fill="#fefefe" d="M 521.5,101.5 C 523.903,101.393 525.736,102.393 527,104.5C 532.26,112.014 536.76,120.014 540.5,128.5C 537.715,131.4 534.382,133.566 530.5,135C 509.566,142.354 488.4,148.521 467,153.5C 453.478,150.229 443.812,142.229 438,129.5C 437.333,125.167 437.333,120.833 438,116.5C 440.946,113.8 443.446,114.3 445.5,118C 444.128,119.242 443.128,120.742 442.5,122.5C 449.061,132.401 457.728,139.734 468.5,144.5C 487.403,138.754 506.403,133.42 525.5,128.5C 525.519,126.94 525.852,125.44 526.5,124C 524.5,117.333 522.5,110.667 520.5,104C 520.743,103.098 521.077,102.265 521.5,101.5 Z"/></g>
<g><path style="opacity:1" fill="#b3b4b6" d="M 139.5,124.5 C 139.709,122.286 138.876,120.619 137,119.5C 135.433,120.856 133.6,121.523 131.5,121.5C 131.335,118.15 131.502,114.817 132,111.5C 134.506,109.133 137.006,106.799 139.5,104.5C 141.093,105.348 142.26,106.681 143,108.5C 143.333,106.833 143.667,105.167 144,103.5C 147.456,109.782 147.789,116.115 145,122.5C 143.662,125.082 141.829,125.749 139.5,124.5 Z"/></g>
<g><path style="opacity:1" fill="#9fa5ac" d="M 103.5,104.5 C 104.124,104.917 104.457,105.584 104.5,106.5C 103.768,109.197 102.934,111.864 102,114.5C 101.153,110.928 101.653,107.594 103.5,104.5 Z"/></g>
<g><path style="opacity:0.914" fill="#fefefe" d="M 410.5,109.5 C 415.048,109.199 418.215,111.199 420,115.5C 422.063,121.252 423.897,127.085 425.5,133C 423.587,136.794 420.42,138.628 416,138.5C 413.516,138.174 411.349,137.174 409.5,135.5C 410.248,130.363 410.915,125.197 411.5,120C 410.389,116.379 410.056,112.879 410.5,109.5 Z"/></g>
<g><path style="opacity:0.898" fill="#fefefe" d="M 374.5,112.5 C 376.288,112.215 377.955,112.548 379.5,113.5C 373.977,124.025 366.311,132.692 356.5,139.5C 353.552,135.956 352.052,131.956 352,127.5C 359.651,122.601 367.151,117.601 374.5,112.5 Z"/></g>
<g><path style="opacity:1" fill="#1e446e" d="M 133.5,140.5 C 135.989,140.298 138.323,140.798 140.5,142C 137.16,144.5 133.494,146.333 129.5,147.5C 128.025,150.245 128.691,152.412 131.5,154C 134.579,155.09 136.912,154.257 138.5,151.5C 137.726,150.289 136.893,150.289 136,151.5C 135.626,150.584 135.126,149.75 134.5,149C 136.47,146.684 138.804,144.851 141.5,143.5C 143.412,145.657 145.079,147.991 146.5,150.5C 142.557,155.588 137.391,158.921 131,160.5C 122.588,158.015 120.588,153.015 125,145.5C 127.682,143.415 130.516,141.748 133.5,140.5 Z"/></g>
<g><path style="opacity:1" fill="#1d436e" d="M 118.5,149.5 C 119.75,149.577 120.583,150.244 121,151.5C 122.48,156.102 123.646,160.769 124.5,165.5C 122.323,165.586 120.323,166.253 118.5,167.5C 115.488,164.515 112.155,162.349 108.5,161C 109.877,163.333 110.877,165.833 111.5,168.5C 109.107,170.738 106.94,170.738 105,168.5C 103.205,163.988 102.039,159.321 101.5,154.5C 104.141,153.737 106.808,153.57 109.5,154C 111.759,155.715 113.926,157.548 116,159.5C 116.154,156.768 115.654,154.102 114.5,151.5C 115.949,150.828 117.282,150.161 118.5,149.5 Z"/></g>
<g><path style="opacity:1" fill="#1f456f" d="M 43.5,138.5 C 44.552,138.351 45.552,138.517 46.5,139C 51.1379,143.654 56.4712,147.321 62.5,150C 61.0376,153.094 59.7043,156.261 58.5,159.5C 59.741,162.144 61.741,162.977 64.5,162C 65.7958,159.239 66.9625,156.405 68,153.5C 68.5613,152.978 69.228,152.645 70,152.5C 73.7077,153.887 77.5411,154.721 81.5,155C 82.4317,157.651 83.7651,157.985 85.5,156C 90.1548,155.501 94.8215,155.334 99.5,155.5C 100.384,160.804 101.051,166.137 101.5,171.5C 99.1667,171.5 96.8333,171.5 94.5,171.5C 94.6516,166.713 93.985,162.046 92.5,157.5C 90.0774,158.918 88.4107,160.918 87.5,163.5C 88.6511,166.465 90.3178,169.131 92.5,171.5C 88.1134,172.9 84.78,171.566 82.5,167.5C 81.2092,169.097 79.7092,170.43 78,171.5C 75.8649,170.873 73.6982,170.373 71.5,170C 74.2193,167.618 76.5526,164.951 78.5,162C 77.7771,159.447 76.4438,157.28 74.5,155.5C 72.7353,158.965 71.0687,162.465 69.5,166C 61.6174,168.889 55.9507,166.555 52.5,159C 53.0641,156.474 53.7308,153.974 54.5,151.5C 52.8065,148.81 50.4732,146.81 47.5,145.5C 46.479,146.002 46.3123,146.668 47,147.5C 48.1545,148.743 49.4878,149.743 51,150.5C 51.6838,151.784 51.5171,152.951 50.5,154C 48.1564,153.232 45.8231,152.065 43.5,150.5C 42.1552,151.347 41.1552,152.513 40.5,154C 38.3687,153.602 36.3687,152.602 34.5,151C 37.3869,146.716 40.3869,142.549 43.5,138.5 Z"/></g>
</svg>
