<?xml version="1.0" encoding="utf-8"?><!DOCTYPE svg PUBLIC "-//W3C//DTD SVG 1.1//EN" "http://www.w3.org/Graphics/SVG/1.1/DTD/svg11.dtd"><svg version="1.1" xmlns="http://www.w3.org/2000/svg" width="581.25" height="174.84375" viewBox="0 0 581.25 174.84375"><g><g><rect fill="#FFFFFF" width="0" height="0" /></g><g transform="translate(0,0)"><path fill="#ed0c0c" d="M61.88 27.19L66.09 24.84L68.91 32.34Q78.28 24.84 84.38 24.84L84.38 24.84L85.78 24.84L85.78 27.19Q72.19 35.16 67.50 57.66L67.50 57.66L66.09 61.41L67.50 62.81L67.50 63.75L63.28 81.56L58.59 81.56L57.19 74.06L70.31 38.91L68.91 38.91Q61.41 40.78 48.75 60L48.75 60L47.34 60L47.34 59.06L61.88 27.19ZM19.22 37.50L20.63 37.50L31.88 50.16Q20.63 88.13 20.63 109.22L20.63 109.22L20.63 115.78L23.44 115.78Q23.44 130.78 15 143.44L15 143.44L12.19 143.44L10.78 136.88L22.03 52.50Q22.03 45.94 17.81 38.91L17.81 38.91L19.22 37.50ZM91.41 46.41L91.41 46.41L92.81 46.41Q95.63 46.41 95.63 50.16L95.63 50.16Q87.66 63.75 68.91 85.31L68.91 85.31L63.28 95.63Q88.59 79.22 99.84 79.22L99.84 79.22L104.06 82.97L104.06 85.31Q104.06 96.56 91.41 112.03L91.41 112.03L91.41 114.38Q98.91 114.38 108.28 129.38L108.28 129.38Q108.28 134.06 95.63 136.88L95.63 136.88L95.63 135.47L98.44 127.97Q98.44 124.69 87.19 116.72L87.19 116.72L78.75 119.53Q65.16 113.44 61.88 108.28L61.88 108.28L61.88 103.13L63.28 103.13L85.78 109.22L98.44 90.47L98.44 85.31L95.63 82.97Q79.22 87.19 58.59 104.53L58.59 104.53L55.78 104.53L55.78 101.72L73.13 66.56L71.72 62.81L73.13 61.41L74.53 61.41L80.16 65.16Q87.19 55.78 87.19 51.56L87.19 51.56L85.78 51.56L80.16 53.91L78.75 52.50L78.75 51.56Q87.19 46.41 91.41 46.41ZM67.50 108.28L67.50 108.28Q68.91 112.03 75.94 112.03L75.94 112.03Q74.53 108.28 67.50 108.28Z"/></g><g transform="translate(116.25,0)"><path fill="#ed0c0c" d="M91.41 33.75L92.81 33.75Q99.84 46.41 99.84 57.66L99.84 57.66L98.44 71.72L108.28 68.91L109.69 70.31L109.69 71.72Q88.13 96.09 70.31 101.25L70.31 101.25Q59.06 104.06 53.44 108.28L53.44 108.28L52.03 106.88L52.03 105.47L66.09 95.63L66.09 94.22L64.69 94.22Q13.59 123.75 9.84 123.75L9.84 123.75L5.63 119.53L5.63 115.31L8.44 115.31L9.84 116.72Q50.63 92.81 54.84 92.81L54.84 92.81L53.44 91.41L53.44 90Q53.44 87.66 84.38 74.53L84.38 74.53Q94.22 67.03 94.22 56.25L94.22 56.25L94.22 49.22Q94.22 42.19 90 35.16L90 35.16L91.41 33.75ZM68.91 39.38L68.91 39.38L70.31 40.78L70.31 42.19L59.06 47.81L59.06 49.22L61.88 53.44L61.88 56.25Q61.88 73.59 47.81 85.78L47.81 85.78L46.41 85.78L40.78 78.75L49.22 73.13L54.84 54.84L50.63 53.44L32.34 63.28L32.34 60.47Q43.13 46.41 56.25 46.41L56.25 46.41Q64.22 39.38 68.91 39.38ZM63.28 66.09L67.50 46.41L70.31 46.41L67.50 61.88Q70.31 61.88 70.31 56.25L70.31 56.25L71.72 56.25L74.53 59.06Q74.53 69.84 67.50 74.53L67.50 74.53Q63.28 73.13 63.28 66.09L63.28 66.09ZM14.06 64.69L14.06 64.69L18.28 75.94L19.69 75.94L23.91 73.13L23.91 81.56Q21.09 83.91 21.09 97.03L21.09 97.03L19.69 98.44L18.28 98.44Q9.84 94.22 9.84 80.16L9.84 80.16Q10.78 64.69 14.06 64.69ZM95.63 104.06L97.03 104.06Q103.13 104.06 108.28 126.56L108.28 126.56Q106.88 130.78 99.84 130.78L99.84 130.78L97.03 130.78L95.63 129.38L94.22 129.38L95.63 112.50L94.22 105.47L95.63 104.06ZM39.38 120.94L61.88 106.88L64.69 106.88Q64.69 113.91 43.59 132.19L43.59 132.19Q39.38 126.09 39.38 120.94L39.38 120.94Z"/></g><g transform="translate(232.5,0)"><path fill="#ed0c0c" d="M47.34 40.31L64.22 37.50L68.44 37.50Q79.22 37.50 81.09 43.13L81.09 43.13L81.09 44.53Q77.34 52.97 69.84 52.97L69.84 52.97L67.03 52.97L65.63 51.56L64.22 51.56L68.44 43.13L67.03 43.13L40.31 44.53L37.50 40.31L38.91 38.91L40.31 38.91L47.34 40.31ZM65.63 60L76.88 55.78Q84.38 55.78 88.13 62.81L88.13 62.81L88.13 69.84Q88.13 82.03 72.66 109.22L72.66 109.22L71.25 110.63L68.44 110.63Q52.03 110.63 37.50 116.25L37.50 116.25L26.25 116.25L22.03 112.03L40.31 107.81L40.31 106.41L38.91 105L38.91 103.59L45.94 102.19L44.53 100.78L44.53 95.16L54.38 96.56L52.97 89.53L54.38 81.09L54.38 79.69L52.97 79.69Q52.97 86.72 30.47 96.56L30.47 96.56L27.66 96.56L24.84 93.75Q49.22 67.03 65.63 60L65.63 60ZM57.19 76.88L57.19 76.88Q60 76.88 60 81.09L60 81.09L61.41 79.69L64.22 79.69L64.22 90.94Q67.03 94.22 67.03 100.78L67.03 100.78Q74.06 100.78 82.50 69.84L82.50 69.84L82.50 64.22L79.69 61.41Q70.31 61.41 57.19 76.88ZM83.91 96.56L85.31 96.56Q90.94 102.19 100.78 121.88L100.78 121.88Q100.78 126.56 51.56 140.16L51.56 140.16Q51.56 142.97 29.06 145.78L29.06 145.78Q3.75 132.66 3.75 117.66L3.75 117.66L3.75 112.03L6.56 109.22L7.97 109.22L10.78 112.03L7.97 116.25Q20.16 133.59 33.28 137.34L33.28 137.34L86.72 121.88L88.13 117.66L82.50 97.97L83.91 96.56Z"/></g><g transform="translate(348.75,0)"><path fill="#ed0c0c" d="M68.44 49.69L90.94 32.81L92.34 32.81Q103.59 33.75 103.59 42.66L103.59 42.66Q99.84 42.66 86.72 87.66L86.72 87.66L86.72 91.88L112.03 105.94L112.03 112.97Q102.19 127.50 95.16 131.25L95.16 131.25L90.94 131.25Q75.47 119.06 75.47 97.50L75.47 97.50Q67.03 97.50 64.22 136.88L64.22 136.88L62.81 138.28L55.78 138.28L50.16 132.66L50.16 129.84L55.78 121.41L54.38 120L54.38 118.59L55.78 110.16L44.53 110.16Q41.25 110.16 40.31 104.53L40.31 104.53L17.81 134.06L15 134.06L10.78 129.84L10.78 128.44L19.22 87.66Q10.78 87.66 10.78 83.44L10.78 83.44Q15.94 79.22 26.25 77.81L26.25 77.81L31.88 80.63L29.06 101.72Q37.03 92.81 44.53 77.81L44.53 77.81L45.94 77.81L48.75 80.63L43.13 103.13Q50.16 103.13 55.78 91.88L55.78 91.88L57.19 67.97L65.63 67.97Q68.91 67.97 71.25 80.63L71.25 80.63L76.88 83.44L78.28 75L76.88 73.59L76.88 72.19Q85.31 59.06 85.31 51.09L85.31 51.09Q79.22 56.72 74.06 56.72L74.06 56.72L72.66 56.72L68.44 52.50L68.44 49.69ZM16.41 52.50L19.22 49.69L29.06 49.69Q36.56 49.69 38.91 55.31L38.91 55.31Q38.91 60 22.03 62.34L22.03 62.34Q19.22 62.34 19.22 55.31L19.22 55.31L16.41 55.31L16.41 52.50ZM72.66 86.25L69.84 86.25L69.84 89.06L68.44 90.47L69.84 91.88L74.06 93.28L74.06 91.88L72.66 90.47L72.66 89.06L74.06 87.66L72.66 86.25ZM102.19 110.16L86.72 104.53L86.72 108.75Q90 124.22 93.75 124.22L93.75 124.22Q102.19 117.19 102.19 110.16L102.19 110.16Z"/></g><g transform="translate(465,0)"><path fill="#ed0c0c" d="M81.56 21.56L82.97 21.56Q91.41 26.25 91.41 34.22L91.41 34.22L91.41 44.06L90 45.47L91.41 46.88L91.41 48.28L90 56.72L90 58.13L91.41 58.13L101.25 44.06L98.44 37.03L99.84 35.63L101.25 35.63Q106.88 38.44 106.88 42.66L106.88 42.66Q106.88 64.22 84.38 89.06L84.38 89.06L80.16 110.16L80.16 114.38Q89.53 106.41 108.28 104.53L108.28 104.53L113.91 107.34L115.31 105.94L116.72 105.94Q119.53 105.94 119.53 110.16L119.53 110.16Q112.97 131.25 90 131.25L90 131.25L80.16 134.06L80.16 132.66L63.28 136.88L61.88 135.47L61.88 131.25L71.72 120L71.72 96.09Q59.53 101.72 39.38 122.81L39.38 122.81L39.38 124.22L40.78 145.31L39.38 146.72L36.56 146.72L30.94 141.09L30.94 127.03Q25.78 129.84 14.06 150.94L14.06 150.94L12.66 152.34L9.84 152.34Q6.56 152.34 2.81 138.28L2.81 138.28L2.81 135.47Q15.47 116.25 15.47 111.56L15.47 111.56L18.28 111.56Q18.28 98.44 35.16 93.28L35.16 93.28L36.56 76.41L35.16 76.41Q19.22 97.50 11.25 97.50L11.25 97.50L5.63 91.88L5.63 86.25Q14.06 81.09 30.94 62.34L30.94 62.34L37.97 58.13Q44.53 60.94 45 63.75L45 63.75L45 69.38Q45 86.72 39.38 103.13L39.38 103.13L40.78 103.13Q63.28 85.31 73.13 73.59L73.13 73.59L73.13 59.53Q75.94 55.78 80.16 30L80.16 30L81.56 28.59L80.16 22.97L81.56 21.56ZM15.47 32.81L32.34 30L35.16 30Q42.19 33.75 42.19 41.25L42.19 41.25L36.56 49.69Q28.59 49.69 15.47 37.03L15.47 37.03L15.47 32.81ZM33.75 104.53L30.94 104.53L22.50 122.81L22.50 124.22Q35.16 113.91 35.16 108.75L35.16 108.75L33.75 104.53Z"/></g></g></svg>